<svg xmlns="http://www.w3.org/2000/svg" width="960" height="540" viewBox="0 0 960 540" role="img" aria-label="Before and after selected reaction close-up" data-reference-example="RE-P-VS-R02">
  <rect width="960" height="540" fill="#111827"/>
  <text x="48" y="58" fill="#94a3b8" font-family="system-ui, sans-serif" font-size="20" font-weight="700">BEFORE</text>
  <text x="528" y="58" fill="#fb7185" font-family="system-ui, sans-serif" font-size="20" font-weight="700">AFTER</text>
  <line x1="480" y1="32" x2="480" y2="508" stroke="#374151" stroke-width="2"/>
  <g data-state="before">
    <rect x="48" y="90" width="384" height="332" rx="24" fill="#1f2937"/>
    <circle cx="160" cy="245" r="72" fill="#64748b"/>
    <circle cx="320" cy="245" r="72" fill="#fb7185"/>
    <circle cx="136" cy="230" r="8" fill="#0f172a"/><circle cx="184" cy="230" r="8" fill="#0f172a"/>
    <circle cx="296" cy="230" r="8" fill="#0f172a"/><circle cx="344" cy="230" r="8" fill="#0f172a"/>
    <text x="160" y="354" text-anchor="middle" fill="#cbd5e1" font-family="system-ui, sans-serif" font-size="20">A</text>
    <text x="320" y="354" text-anchor="middle" fill="#fecdd3" font-family="system-ui, sans-serif" font-size="20">B</text>
  </g>
  <g data-state="after">
    <rect x="528" y="90" width="384" height="332" rx="24" fill="#1f2937"/>
    <circle cx="620" cy="268" r="38" fill="#475569"/>
    <circle cx="762" cy="240" r="132" fill="#fb7185"/>
    <circle cx="716" cy="214" r="13" fill="#0f172a"/><circle cx="808" cy="214" r="13" fill="#0f172a"/>
    <path d="M720 286 Q762 322 804 286" fill="none" stroke="#0f172a" stroke-width="10" stroke-linecap="round"/>
    <text x="620" y="334" text-anchor="middle" fill="#94a3b8" font-family="system-ui, sans-serif" font-size="18">A context</text>
    <text x="762" y="396" text-anchor="middle" fill="#fecdd3" font-family="system-ui, sans-serif" font-size="24" font-weight="700">B reaction</text>
  </g>
  <text x="240" y="474" text-anchor="middle" fill="#94a3b8" font-family="system-ui, sans-serif" font-size="18">shared attention</text>
  <text x="720" y="474" text-anchor="middle" fill="#fb7185" font-family="system-ui, sans-serif" font-size="18">selected reaction is primary</text>
</svg>
